<?xml version="1.0" standalone="no"?>
<!DOCTYPE svg PUBLIC "-//W3C//DTD SVG 20010904//EN"
 "http://www.w3.org/TR/2001/REC-SVG-20010904/DTD/svg10.dtd">
<svg version="1.0" xmlns="http://www.w3.org/2000/svg"
 width="524.000000pt" height="524.000000pt" viewBox="0 0 524.000000 524.000000"
 preserveAspectRatio="xMidYMid meet">
<metadata>
Created by potrace 1.11, written by Peter Selinger 2001-2013
</metadata>
<g transform="translate(0.000000,524.000000) scale(0.100000,-0.100000)"
fill="#000000" stroke="none">
<path d="M0 2620 l0 -2620 2620 0 2620 0 0 2620 0 2620 -2620 0 -2620 0 0
-2620z m4205 377 c55 -14 147 -50 205 -78 92 -46 117 -64 195 -143 103 -104
148 -181 191 -321 24 -80 27 -107 28 -245 0 -121 -3 -170 -18 -225 -85 -323
-322 -529 -695 -605 -86 -17 -138 -20 -400 -20 l-301 0 -2 -392 -3 -393 -217
-3 -218 -2 0 1230 0 1231 568 -3 567 -4 100 -27z"/>
<path d="M3400 2215 l0 -415 263 0 c357 0 446 21 562 131 93 88 129 199 113
351 -17 174 -134 293 -326 334 -48 10 -144 14 -339 14 l-273 0 0 -415z"/>
</g>
</svg>
